HIERARCHY
ROOT Pelvis
{
	OFFSET 0.000000 0.000000 0.000000
	CHANNELS 6 Xposition Yposition Zposition Zrotation Yrotation Xrotation 
	JOINT Left_hip
	{
		OFFSET 0.076090 -0.089427 -0.010735
		CHANNELS 3 Zrotation Yrotation Xrotation
		JOINT Left_knee
		{
			OFFSET 0.030200 -0.359518 -0.003501
			CHANNELS 3 Zrotation Yrotation Xrotation
			JOINT Left_ankle
			{
				OFFSET -0.011005 -0.371022 -0.045888
				CHANNELS 3 Zrotation Yrotation Xrotation
				JOINT Left_foot
				{
					OFFSET 0.023930 -0.052103 0.111084
					CHANNELS 3 Zrotation Yrotation Xrotation
					End Site
					{
						OFFSET 0.000000 0.000000 0.000000
					}
				}
			}
		}
	}
	JOINT Right_hip
	{
		OFFSET -0.073836 -0.088112 -0.007709
		CHANNELS 3 Zrotation Yrotation Xrotation
		JOINT Right_knee
		{
			OFFSET -0.035715 -0.367809 -0.006536
			CHANNELS 3 Zrotation Yrotation Xrotation
			JOINT Right_ankle
			{
				OFFSET 0.013718 -0.371958 -0.043815
				CHANNELS 3 Zrotation Yrotation Xrotation
				JOINT Right_foot
				{
					OFFSET -0.021936 -0.046387 0.114542
					CHANNELS 3 Zrotation Yrotation Xrotation
					End Site
					{
						OFFSET 0.000000 0.000000 0.000000
					}
				}
			}
		}
	}
	JOINT Spine1
	{
		OFFSET -0.001865 0.102064 -0.019455
		CHANNELS 3 Zrotation Yrotation Xrotation
		JOINT Spine2
		{
			OFFSET 0.003082 0.129260 -0.001938
			CHANNELS 3 Zrotation Yrotation Xrotation
			JOINT Spine3
			{
				OFFSET 0.001104 0.048093 0.026561
				CHANNELS 3 Zrotation Yrotation Xrotation
				JOINT Neck
				{
					OFFSET -0.002010 0.204222 -0.047183
					CHANNELS 3 Zrotation Yrotation Xrotation
					JOINT Head
					{
						OFFSET 0.005050 0.063649 0.048489
						CHANNELS 3 Zrotation Yrotation Xrotation
						End Site
						{
							OFFSET 0.000000 0.000000 0.000000
						}
					}
				}
				JOINT Left_collar
				{
					OFFSET 0.072979 0.114065 -0.031633
					CHANNELS 3 Zrotation Yrotation Xrotation
					JOINT Left_shoulder
					{
						OFFSET 0.083419 0.032092 -0.006530
						CHANNELS 3 Zrotation Yrotation Xrotation
						JOINT Left_elbow
						{
							OFFSET 0.239393 -0.012014 -0.025060
							CHANNELS 3 Zrotation Yrotation Xrotation
							JOINT Left_wrist
							{
								OFFSET 0.227297 0.008116 0.000384
								CHANNELS 3 Zrotation Yrotation Xrotation
								JOINT Left_palm
								{
									OFFSET 0.074607 -0.009248 -0.012277
									CHANNELS 3 Zrotation Yrotation Xrotation
									End Site
									{
										OFFSET 0.000000 0.000000 0.000000
									}
								}
							}
						}
					}
				}
				JOINT Right_collar
				{
					OFFSET -0.074980 0.111880 -0.037894
					CHANNELS 3 Zrotation Yrotation Xrotation
					JOINT Right_shoulder
					{
						OFFSET -0.087565 0.034353 -0.009323
						CHANNELS 3 Zrotation Yrotation Xrotation
						JOINT Right_elbow
						{
							OFFSET -0.236838 -0.013719 -0.019794
							CHANNELS 3 Zrotation Yrotation Xrotation
							JOINT Right_wrist
							{
								OFFSET -0.235053 0.006433 -0.003853
								CHANNELS 3 Zrotation Yrotation Xrotation
								JOINT Right_palm
								{
									OFFSET -0.075499 -0.006894 -0.009792
									CHANNELS 3 Zrotation Yrotation Xrotation
									End Site
									{
										OFFSET 0.000000 0.000000 0.000000
									}
								}
							}
						}
					}
				}
			}
		}
	}
}
MOTION
Frames: 15
Frame Time: 0.100000
-0.417117 -0.169430 0.874837 152.402157 62.669756 -37.703673 -6.664251 -4.972351 6.099714 -0.614236 -11.627315 9.245932 6.762138 8.028319 -12.427745 1.570554 8.958639 -11.171449 -4.271835 6.384984 -15.689691 -2.320264 5.601826 17.967748 13.663524 -4.816528 -7.269713 -15.859355 -3.712126 -0.966731 -2.147142 -2.227424 6.874491 4.050831 -9.495532 1.961528 0.366982 -6.526800 3.366642 -4.282397 19.052360 -5.927751 -3.007727 10.315733 2.365493 -12.293831 -20.854121 3.652180 -75.200690 -26.161028 35.400646 -32.105908 -67.086886 48.090201 -5.301852 -11.359640 -38.557510 -18.663697 -2.766031 -1.860298 8.788062 -3.496135 -4.393260 66.050764 -0.443975 17.816961 -137.649025 33.484127 -115.543711 3.871515 5.389027 -46.439906 17.626675 11.324246 -9.211591 
-0.463016 -0.173439 0.910021 134.305428 72.715830 -54.941173 -5.041544 -5.201778 11.466127 -1.320299 -20.871376 7.307599 4.531014 5.243008 -15.415604 3.147166 9.531650 -11.058794 -8.177265 9.074280 -13.456418 -2.111593 14.634995 3.707511 18.125367 1.821143 -6.598028 -19.201707 -4.201495 0.576100 -1.928048 -2.432997 4.688731 4.006109 -9.678612 4.070809 -0.307048 -6.375836 3.358498 -3.955127 16.040470 -5.351295 -3.714302 2.999778 5.061624 -12.606554 -19.701006 3.422059 -75.190711 -25.828599 36.743605 -30.939975 -65.865521 46.967378 -6.703127 -12.904782 -35.904308 -20.793887 -1.815554 -1.546656 10.487990 -3.540195 -5.201349 64.867283 0.121150 18.387795 -138.460388 33.481340 -117.450950 5.072852 6.707780 -47.681845 19.892114 11.804221 -10.079209 
-0.521496 -0.181868 0.955146 81.120389 77.306964 -107.215589 -1.935223 -6.946148 15.123270 -0.237780 -29.326385 7.528428 1.844324 2.792034 -17.684229 5.613673 6.836066 -10.219177 -7.408320 8.437279 -10.589741 -0.681136 14.330303 9.701097 18.406979 3.805782 -4.994544 -17.852068 -5.449325 1.180447 -2.276885 -2.183928 2.605961 4.931070 -10.455095 4.533298 -0.261935 -6.521729 2.583175 -4.516260 13.463446 -3.408193 -4.407035 -1.645295 7.385105 -12.984871 -20.702340 3.881501 -75.430025 -25.699896 37.467426 -29.056026 -64.319815 44.985770 -7.295475 -13.452167 -36.674423 -20.970383 -1.751059 -1.619314 11.643258 -2.702535 -5.487479 64.155933 -0.014624 17.386741 -138.325215 33.658680 -116.726504 4.984822 7.381528 -49.364272 20.168933 11.755932 -8.999145 
-0.577399 -0.196903 0.993790 44.051110 69.579499 -143.178607 2.433250 -9.052628 15.217076 0.767835 -33.330889 11.240233 -2.411134 2.041633 -16.836289 11.415907 6.074146 -11.090739 -4.446299 6.283857 -6.537025 1.524966 9.453936 13.814898 15.474914 -1.091496 -9.967545 -18.535152 -3.646008 2.049645 -1.712020 -1.634796 0.683380 6.072304 -11.093002 4.658875 0.452755 -6.685784 2.400488 -3.332083 13.165724 -3.504636 -4.430866 -3.079171 9.290619 -12.909041 -22.647560 4.365713 -76.110122 -26.672984 37.721042 -25.600506 -63.135969 42.031301 -6.691698 -12.428692 -37.473751 -19.683224 -2.237861 -2.389420 11.238492 -1.019698 -5.627677 63.174204 0.526441 16.062218 -137.108873 34.198351 -114.678380 4.217538 7.226545 -49.856376 18.873716 10.758578 -8.085354 
-0.619073 -0.213673 1.020711 28.464881 60.902598 -158.298970 4.172301 -8.811141 9.633944 -2.794301 -27.074506 25.045158 -5.297647 2.009997 -11.719865 12.838823 7.420679 -13.729538 -2.518708 3.224716 1.264805 1.366075 5.787431 8.491089 13.499413 -4.462292 -11.008394 -19.199962 -2.921385 1.847127 -2.037345 0.238976 0.852437 6.035914 -11.996230 4.525810 0.933563 -6.673443 2.147466 -1.940299 11.650055 -4.547179 -1.978189 -3.240314 7.921696 -12.252249 -23.266791 4.404712 -75.681247 -27.243817 37.143930 -27.430472 -63.682953 44.606028 -6.496318 -12.086596 -37.725294 -18.824852 -2.352906 -2.184271 10.149063 -0.610495 -6.003950 64.286925 -0.111712 15.722952 -137.996052 34.152687 -115.217646 3.061651 6.528080 -50.698212 18.390454 10.449628 -7.439236 
-0.644130 -0.221899 1.038368 20.698366 54.527156 -164.830898 4.725555 -4.688467 0.112741 -2.083827 -8.782542 39.273635 -4.332873 6.139077 -8.037330 10.676056 8.100369 -15.154709 -3.243728 -1.137545 5.394225 2.798269 2.614635 4.639109 12.067943 -3.745420 -10.815266 -18.576882 -3.212879 1.028064 -0.766549 2.075298 1.929664 5.692241 -11.999754 4.366272 1.271124 -5.953421 1.783760 -4.777278 12.221524 -8.328708 -2.108032 1.535800 4.342259 -12.432618 -23.425851 4.308260 -74.540177 -26.940960 34.521999 -28.654424 -64.577912 45.591100 -6.819867 -11.810166 -38.240800 -19.740307 -2.642045 -1.459521 10.004716 -0.232769 -4.799021 62.092020 1.160182 14.341933 -138.959616 34.302165 -117.208919 2.993995 6.393171 -51.053502 19.579338 10.845447 -7.784701 
-0.660645 -0.228798 1.047321 13.405936 48.669950 -170.954556 2.043488 -1.987185 -6.343424 0.193307 3.588237 45.125999 -1.005357 8.662346 -9.659487 8.169410 8.748817 -15.423902 -4.211489 -3.890828 7.800141 1.884552 0.259092 4.083307 11.529572 -4.810804 -11.386505 -18.526364 -3.688768 -0.692510 0.556175 3.357378 3.994799 4.521570 -11.840334 4.188193 1.148209 -5.282451 1.684701 -11.281410 14.269973 -11.684647 -5.378907 7.931963 -1.231868 -11.976885 -24.029103 4.133016 -74.619963 -26.555461 32.113592 -28.152992 -63.032569 44.068626 -7.799666 -11.399177 -38.952782 -19.917950 -2.887423 -0.471025 9.174067 -0.054763 -3.443630 62.423796 0.769645 13.610311 -137.993543 34.029170 -117.774107 3.348280 5.690442 -50.231664 20.244610 11.664094 -8.743594 
-0.674277 -0.232770 1.048806 7.430096 43.311966 -174.836571 -1.533244 -1.668626 -12.556325 -2.964998 7.622691 40.990912 -0.467964 3.604092 -6.874685 5.655116 9.355798 -16.434875 -6.394231 -6.632349 9.803026 1.464784 -2.431573 2.734507 11.695009 -5.612905 -11.339089 -18.938587 -3.345767 -1.918544 1.732366 5.157549 5.318809 2.919250 -11.791854 4.265672 0.441535 -4.626996 1.401691 -16.056011 16.282603 -13.841558 -7.710626 12.500847 -5.126150 -12.381590 -25.021210 3.727738 -74.241680 -25.686143 31.969645 -29.781865 -62.410749 46.427158 -6.222011 -11.592504 -36.909055 -21.283610 -3.079246 -1.403348 8.533125 0.377730 -2.398867 62.437574 -0.573757 12.680268 -137.576075 33.555625 -118.694915 3.177560 5.836414 -50.091954 20.644351 12.086274 -8.717817 
-0.687150 -0.232729 1.044692 5.004358 40.041603 -175.970797 -3.089805 -1.918445 -16.776680 -3.120086 10.714662 28.967220 -1.663652 2.365097 -2.493691 6.854440 10.066828 -15.837911 -6.991015 -8.314164 11.771133 1.250802 -4.180158 0.994004 11.879953 -6.134085 -11.573771 -18.849801 -2.627037 -2.406111 2.578903 6.213468 6.220157 2.104325 -11.051797 4.320010 0.450223 -3.634642 1.452866 -17.555948 18.866645 -15.080137 -8.945561 14.999138 -6.212298 -12.411350 -25.118953 3.003561 -75.253846 -25.040104 32.794579 -29.835610 -62.449489 46.481926 -6.571348 -12.247088 -37.163443 -20.472831 -3.095138 -1.643662 7.775684 1.171185 -1.745645 61.456888 1.021528 12.748397 -137.356896 34.134958 -119.029308 3.330400 6.588632 -49.326632 19.982035 11.676844 -8.725435 
-0.702961 -0.228744 1.033422 3.589709 37.339532 -176.296387 -2.992522 -2.908029 -21.344867 -4.062335 12.499426 16.276293 -3.147263 1.729659 1.009616 9.640387 10.920249 -14.412905 -7.209247 -9.199675 14.776755 1.541705 -4.932189 -1.704355 11.344655 -7.651924 -12.259277 -17.701808 -2.052464 -2.171051 2.322233 7.559743 6.822193 1.796864 -11.205011 4.284995 0.613527 -3.143145 1.873736 -16.345123 21.501649 -15.317536 -7.935850 16.195767 -6.412829 -12.368140 -25.411788 2.505619 -75.434339 -24.895765 33.951134 -31.245297 -63.136983 47.041846 -5.237859 -11.975725 -38.768184 -20.310841 -3.431473 -2.650439 7.046910 1.526934 -1.524737 62.043068 2.456702 13.698879 -137.872561 34.012487 -119.291843 3.387189 6.533538 -49.530564 19.360503 11.554619 -9.348195 
-0.722673 -0.220314 1.015096 3.201747 36.324799 -176.223856 -1.699079 -3.037301 -25.929175 -4.360904 12.538560 10.794166 -6.147572 0.865848 2.715264 14.048831 11.775563 -13.978481 -7.420663 -9.861433 16.402519 1.073587 -4.635530 -0.738016 12.926750 -8.501004 -14.450181 -20.806915 -1.177580 -3.595682 2.231353 8.463242 7.729522 1.568752 -11.454882 4.528239 0.793594 -3.053091 2.110666 -16.819204 24.396424 -17.398710 -8.006947 18.083046 -7.074715 -11.777982 -25.276866 2.196797 -76.113933 -24.524243 34.071380 -31.454647 -64.289932 46.374390 -4.890869 -12.381726 -41.208331 -18.680994 -3.186392 -1.898334 6.386077 1.195748 -1.680163 63.758348 2.306025 14.505190 -138.425064 34.358082 -120.118367 3.028740 7.578516 -49.480772 18.139796 10.774057 -8.906991 
-0.748443 -0.204562 0.983646 4.359427 36.228838 -175.553264 -0.052284 -0.034051 -26.472181 -4.847430 14.610601 6.081609 -6.971743 0.544392 3.743055 14.763633 11.891553 -13.257571 -6.698799 -10.720640 18.352649 0.573018 -4.214120 1.095376 10.813759 -8.290438 -16.395797 -17.466024 -2.295695 -4.156229 1.615880 8.686033 8.608397 1.468677 -11.812197 4.639286 1.132047 -3.211145 2.016696 -17.189904 26.468613 -18.156079 -8.064637 19.887214 -8.663167 -11.556328 -25.323381 2.193248 -75.529996 -24.243351 33.123320 -33.663190 -64.939491 49.351519 -4.389636 -12.107434 -41.365894 -18.792873 -3.434923 -2.953777 5.969013 1.023091 -0.991947 65.222619 2.231360 14.212143 -138.637538 34.688315 -119.792780 3.818914 7.221535 -50.402225 18.295050 10.883561 -9.403918 
-0.778467 -0.179668 0.930831 6.740242 36.861850 -172.667200 0.282734 3.766681 -23.687306 -4.608650 20.214381 1.435472 -4.396186 3.363971 -0.773357 15.385392 13.311113 -12.399289 -6.275315 -11.014097 21.003058 0.399537 -2.363810 1.941245 10.168903 -8.420544 -19.092827 -16.085969 -2.345344 -4.983182 1.481667 7.065082 6.158557 0.889555 -11.229750 4.428376 0.886106 -3.039359 1.879907 -16.052709 29.164641 -17.729122 -9.268280 22.798996 -9.696044 -12.943215 -23.957726 2.473208 -75.254527 -24.097816 32.318455 -35.860372 -64.111523 51.290354 -6.031647 -12.117802 -41.986388 -18.404375 -3.867048 -3.136922 6.049020 -0.338286 -0.142258 64.524655 3.061020 14.401304 -139.107144 35.301155 -120.756991 2.635217 6.341675 -50.457751 19.576513 11.531631 -10.504079 
-0.807821 -0.149881 0.850239 7.289836 35.757551 -169.430713 -2.140823 3.221563 -20.458442 -5.349023 24.378652 1.208086 2.770198 6.979577 -3.304414 9.280436 12.728650 -11.538534 -7.471743 -9.986003 22.527220 0.065660 -2.286643 4.742190 8.090059 -8.145024 -18.735787 -10.454292 -4.912660 -4.160429 0.679127 6.320205 0.695477 0.975363 -11.438223 3.355304 0.109893 -3.384972 1.131770 -13.805399 28.551811 -14.734477 -9.606902 25.339487 -10.629293 -15.871364 -23.453641 3.606496 -73.865932 -24.901983 33.136832 -37.842136 -62.441777 52.474472 -6.604218 -11.912117 -40.649150 -19.686848 -3.678982 -3.703511 7.639985 -2.093972 0.615209 61.914212 2.581462 15.187786 -139.076593 34.929061 -120.996531 2.230262 5.655403 -51.447071 19.686742 11.840735 -10.801318 
-0.827057 -0.137685 0.756870 3.054623 30.048227 -171.106226 -6.027824 -6.911186 -19.378985 -4.650216 18.643201 7.851048 7.319786 8.608009 -0.583271 5.646811 12.255856 -12.811339 -9.650497 -6.946150 21.028944 -2.110519 -3.103380 17.873543 10.067620 -11.244639 -9.280751 -10.738955 -4.950420 -6.213535 -2.247630 6.382690 -2.497667 1.251192 -12.523310 3.260756 -1.280209 -4.484120 1.031113 -14.031285 27.323390 -14.115656 -10.077476 23.870499 -10.413659 -16.209621 -24.309363 5.092606 -73.225154 -27.055481 35.294781 -35.261952 -60.870187 48.341916 -6.639079 -11.921267 -40.546491 -19.974583 -3.422388 -3.840291 9.594032 -3.543416 -0.571009 65.308327 -0.553997 18.739558 -138.050833 32.252758 -118.384594 2.245743 4.609224 -50.176244 18.626038 11.732581 -10.998742 
